<svg width="20" height="31" viewBox="0 0 20 31" fill="none" xmlns="http://www.w3.org/2000/svg">
<g clip-path="url(#clip0_15051_846)">
<rect x="4.21094" y="26.3158" width="11.5789" height="4.21053" rx="0.263158" fill="#F8971F"/>
<path d="M15.7891 0.263188C15.7891 0.11785 15.9069 3.05176e-05 16.0522 3.05176e-05H19.7364C19.8818 3.05176e-05 19.9996 0.11785 19.9996 0.263188V15.5418C19.9996 15.6786 19.8887 15.7895 19.7519 15.7895C17.5633 15.7895 15.7891 14.0153 15.7891 11.8267V0.263188Z" fill="#FFC21A"/>
<path d="M5.2627 16.0372C5.2627 15.9004 5.37358 15.7895 5.51037 15.7895H15.789C18.1144 15.7895 19.9995 17.6746 19.9995 20H9.22554C7.03692 20 5.2627 18.2258 5.2627 16.0372Z" fill="#FFC21A"/>
<path d="M10.5254 21.3158C10.5254 21.1704 10.6432 21.0526 10.7885 21.0526H19.9991C19.9991 23.378 18.114 25.2631 15.7885 25.2631H10.7885C10.6432 25.2631 10.5254 25.1453 10.5254 25V21.3158Z" fill="#FFC21A"/>
<path d="M15.7891 15.7895C18.1145 15.7895 19.9996 17.6746 19.9996 20V21.0526C19.9996 23.378 18.1145 25.2631 15.7891 25.2631V15.7895Z" fill="#FFC21A"/>
<path d="M15.5254 21.0526C15.6704 21.0524 15.7878 20.9349 15.7881 20.7899V20.789V21.0526H15.5254Z" fill="#FFC21A"/>
<path d="M15.5254 20C15.6704 20.0003 15.7878 20.1177 15.7881 20.2627V20H15.5254Z" fill="#FFC21A"/>
<rect x="10.5254" y="8.42102" width="4.21053" height="6.31579" rx="0.263158" fill="#FFC21A"/>
<rect x="5.2627" y="8.42108" width="4.21053" height="6.31579" rx="0.263158" fill="#FFC21A"/>
<rect x="9.47363" y="10.5263" width="1.05263" height="2.10526" fill="#FFC21A"/>
<path d="M10.2627 12.6316V12.8943H10.2637V12.6316C10.4086 12.6318 10.5261 12.7493 10.5264 12.8943V12.6316H10.2627Z" fill="#FFC21A"/>
<path d="M9.73633 12.6315C9.59136 12.6318 9.47388 12.7493 9.47363 12.8942V12.6315H9.73633Z" fill="#FFC21A"/>
<path d="M10.2637 10.5263C10.4086 10.526 10.5261 10.4086 10.5264 10.2636V10.2626V10.5263H10.2637Z" fill="#FFC21A"/>
<path d="M9.7373 10.5263V10.2626H9.47363V10.5263H9.7373ZM9.73633 10.5263C9.59136 10.526 9.47388 10.4086 9.47363 10.2636H9.73633V10.5263Z" fill="#FFC21A"/>
<path d="M0 4.47371C0 4.32838 0.11782 4.21056 0.263158 4.21056H3.94737C4.09271 4.21056 4.21053 4.32838 4.21053 4.47371V25.2632C1.88512 25.2632 0 23.3781 0 21.0527V4.47371Z" fill="#FFC21A"/>
<path d="M0 21.0528H9.21053C9.35586 21.0528 9.47368 21.1706 9.47368 21.3159V25.0001C9.47368 25.1455 9.35586 25.2633 9.21053 25.2633H4.21053C1.88512 25.2633 0 23.3782 0 21.0528Z" fill="#FFC21A"/>
<path d="M5.26367 21.0532C4.68242 21.0532 4.2111 20.5817 4.21094 20.0004V21.0532H5.26367Z" fill="#FFC21A"/>
</g>
<defs>
<clipPath id="clip0_15051_846">
<rect width="20" height="30.5263" fill="white"/>
</clipPath>
</defs>
</svg>
